<?xml version="1.0" encoding="UTF-8" standalone="no"?>
<!-- Created with Inkscape (http://www.inkscape.org/) -->
<svg
   xmlns:svg="http://www.w3.org/2000/svg"
   xmlns="http://www.w3.org/2000/svg"
   id="svg2"
   height="411.02362"
   width="361.41733"
   y="0.0000000"
   x="0.0000000"
   version="1.0">
  <defs
     id="defs3" />
  <g
     id="layer1">
    <path
       id="path2071"
       style="fill:#bb0000;fill-opacity:1.0000000;fill-rule:nonzero;stroke:none;stroke-width:1.0000000px;stroke-linecap:butt;stroke-linejoin:miter;stroke-opacity:1.0000000"
       d="M 67.553027,20.031343 C 145.39296,122.13989 222.05836,227.05235 285.63995,338.90469 C 296.00882,357.46209 291.01207,348.59938 300.61344,365.50227 L 268.11288,384.13525 C 259.30509,366.79495 263.93311,375.85094 254.21594,356.97386 C 193.39847,244.35606 124.01543,132.93272 33.690987,41.712843 L 67.553027,20.031343 z " />
    <path
       id="path2073"
       style="fill:#b70000;fill-opacity:1.0000000;fill-rule:nonzero;stroke:none;stroke-width:1.0000000px;stroke-linecap:butt;stroke-linejoin:miter;stroke-opacity:1.0000000"
       d="M 320.33033,30.043183 C 331.37422,24.144143 341.81984,16.953223 353.46202,12.346053 C 365.00542,7.7779629 337.05502,30.981673 328.80342,40.256843 C 312.63492,58.430943 297.03589,77.089733 281.40539,95.729713 C 236.31259,149.50461 191.67885,203.54708 147.94270,258.43245 C 112.85423,302.61620 75.432087,344.92183 41.391137,389.93474 L 6.5687471,404.86734 C 42.524567,359.89973 80.653447,316.73517 116.64574,271.79799 C 190.24472,180.72849 259.55354,74.974043 353.27186,6.1097529 L 320.33033,30.043183 z " />
  </g>
</svg>
